<svg xmlns="http://www.w3.org/2000/svg" xmlns:xlink="http://www.w3.org/1999/xlink" width="500" zoomAndPan="magnify" viewBox="0 0 375 374.999991" height="500" preserveAspectRatio="xMidYMid meet" version="1.0"><defs><g/><clipPath id="70408ddf6a"><path d="M 12 116.832031 L 363 116.832031 L 363 213.582031 L 12 213.582031 Z M 12 116.832031 " clip-rule="nonzero"/></clipPath><clipPath id="1d35235a98"><path d="M 155.628906 133.515625 L 219.378906 133.515625 L 219.378906 197.265625 L 155.628906 197.265625 Z M 155.628906 133.515625 " clip-rule="nonzero"/></clipPath></defs><g clip-path="url(#70408ddf6a)"><path fill="#5271ff" d="M 336.023438 194.90625 L 336.023438 138.878906 L 279.011719 138.878906 L 279.011719 165.078125 L 187.375 116.832031 L 12.429688 208.394531 L 15.03125 213.320312 L 187.375 123.054688 L 359.976562 213.582031 L 362.578125 208.652344 Z M 284.738281 144.585938 L 330.558594 144.585938 L 330.558594 192.050781 L 284.738281 167.929688 Z M 284.738281 144.585938 " fill-opacity="1" fill-rule="nonzero"/></g><g clip-path="url(#1d35235a98)"><path fill="#5271ff" d="M 187.503906 133.515625 C 169.898438 133.515625 155.628906 147.785156 155.628906 165.390625 C 155.628906 182.992188 169.898438 197.265625 187.503906 197.265625 C 205.105469 197.265625 219.378906 182.992188 219.378906 165.390625 C 219.378906 147.785156 205.105469 133.515625 187.503906 133.515625 Z M 187.503906 195.140625 C 171.097656 195.140625 157.753906 181.792969 157.753906 165.390625 C 157.753906 148.984375 171.097656 135.640625 187.503906 135.640625 C 203.90625 135.640625 217.253906 148.984375 217.253906 165.390625 C 217.253906 181.792969 203.90625 195.140625 187.503906 195.140625 Z M 187.503906 195.140625 " fill-opacity="1" fill-rule="nonzero"/></g><path fill="#5271ff" d="M 195.578125 179.59375 C 195.691406 181.011719 196.347656 182.300781 197.425781 183.222656 C 197.808594 183.546875 198.292969 183.726562 198.789062 183.726562 C 199.40625 183.726562 199.988281 183.457031 200.386719 182.988281 L 205.882812 176.550781 C 206.691406 175.597656 206.578125 174.160156 205.628906 173.347656 L 202.382812 170.582031 C 202.207031 170.429688 201.972656 170.351562 201.738281 170.371094 C 201.503906 170.390625 201.289062 170.5 201.136719 170.679688 L 196.832031 175.722656 C 195.910156 176.804688 195.464844 178.179688 195.578125 179.59375 Z M 198.179688 176.871094 L 201.90625 172.503906 L 204.476562 174.695312 C 204.6875 174.875 204.710938 175.191406 204.53125 175.402344 L 199.039062 181.839844 C 198.953125 181.941406 198.847656 181.953125 198.789062 181.953125 C 198.734375 181.953125 198.652344 181.941406 198.578125 181.875 C 197.855469 181.261719 197.417969 180.402344 197.339844 179.457031 C 197.265625 178.511719 197.566406 177.59375 198.179688 176.871094 Z M 198.179688 176.871094 " fill-opacity="1" fill-rule="nonzero"/><path fill="#5271ff" d="M 207.082031 157.929688 L 205.667969 156.515625 C 206.082031 155.402344 205.847656 154.105469 204.957031 153.210938 L 200.355469 148.609375 C 199.765625 148.019531 198.976562 147.695312 198.144531 147.695312 C 197.964844 147.695312 197.792969 147.714844 197.621094 147.746094 C 197.128906 147.414062 195.246094 146.191406 193.542969 145.605469 C 191.832031 145.015625 188.367188 144.519531 188.21875 144.5 C 187.949219 144.457031 187.667969 144.550781 187.46875 144.75 L 186.558594 145.660156 C 186.359375 145.859375 186.265625 146.144531 186.308594 146.421875 C 186.351562 146.699219 186.523438 146.941406 186.773438 147.070312 C 188.132812 147.78125 190.347656 148.992188 190.890625 149.410156 C 191.613281 149.96875 192.664062 151.625 193.058594 152.296875 C 193.027344 152.472656 193.003906 152.648438 193.003906 152.832031 C 193.003906 153.667969 193.332031 154.453125 193.921875 155.042969 L 194.386719 155.507812 L 191.421875 158.472656 L 173.828125 143.464844 C 173.644531 143.3125 173.417969 143.238281 173.175781 143.257812 C 172.9375 143.277344 172.71875 143.394531 172.570312 143.578125 L 168.1875 148.90625 C 168.171875 148.921875 168.171875 148.945312 168.15625 148.964844 C 168.125 149.011719 168.101562 149.0625 168.078125 149.117188 C 168.050781 149.171875 168.03125 149.226562 168.015625 149.285156 C 168.011719 149.308594 168 149.324219 167.996094 149.347656 L 167.542969 152.617188 C 167.503906 152.890625 167.597656 153.167969 167.789062 153.363281 C 167.984375 153.558594 168.257812 153.65625 168.53125 153.617188 L 170.65625 153.34375 L 170.359375 155.46875 C 170.324219 155.742188 170.414062 156.015625 170.609375 156.214844 C 170.804688 156.410156 171.074219 156.507812 171.351562 156.46875 L 173.472656 156.195312 L 173.175781 158.3125 C 173.136719 158.585938 173.226562 158.863281 173.421875 159.058594 C 173.617188 159.253906 173.886719 159.351562 174.164062 159.3125 L 176.285156 159.039062 L 175.988281 161.15625 C 175.949219 161.429688 176.042969 161.703125 176.234375 161.902344 C 176.429688 162.097656 176.703125 162.191406 176.976562 162.160156 L 179.101562 161.886719 L 178.800781 164.007812 C 178.765625 164.28125 178.855469 164.554688 179.050781 164.753906 C 179.242188 164.949219 179.511719 165.046875 179.792969 165.007812 L 181.914062 164.734375 L 181.78125 165.675781 C 181.761719 165.691406 181.734375 165.703125 181.714844 165.722656 L 168.621094 177.515625 C 167.167969 178.96875 167.167969 181.335938 168.621094 182.785156 L 170.78125 184.945312 C 171.484375 185.648438 172.417969 186.039062 173.414062 186.039062 C 174.410156 186.039062 175.347656 185.648438 176.082031 184.914062 L 187.246094 172.515625 L 187.242188 172.539062 C 187.207031 172.8125 187.296875 173.089844 187.492188 173.285156 C 187.683594 173.484375 187.953125 173.582031 188.234375 173.542969 L 190.355469 173.269531 L 190.058594 175.386719 C 190.019531 175.660156 190.109375 175.933594 190.304688 176.128906 C 190.472656 176.300781 190.699219 176.394531 190.933594 176.394531 C 190.972656 176.394531 191.007812 176.390625 191.046875 176.386719 L 193.210938 176.109375 C 192.84375 177.292969 192.699219 178.542969 192.796875 179.816406 C 193.003906 182.4375 194.222656 184.820312 196.222656 186.527344 C 196.976562 187.171875 197.9375 187.523438 198.925781 187.523438 C 200.148438 187.523438 201.304688 186.992188 202.097656 186.0625 L 210.28125 176.464844 C 211.230469 175.359375 211.097656 173.683594 209.988281 172.738281 L 203.351562 167.078125 C 202.875 166.667969 202.265625 166.445312 201.636719 166.445312 C 201.382812 166.445312 201.136719 166.492188 200.898438 166.5625 L 195.382812 161.855469 L 198.058594 159.179688 L 198.523438 159.644531 C 199.113281 160.234375 199.898438 160.5625 200.734375 160.5625 C 201.113281 160.5625 201.480469 160.484375 201.824219 160.355469 L 203.242188 161.773438 C 202.886719 162.949219 203.15625 164.277344 204.082031 165.203125 L 204.617188 165.738281 C 204.78125 165.902344 205.007812 165.996094 205.242188 165.996094 C 205.476562 165.996094 205.703125 165.90625 205.867188 165.738281 L 211.050781 160.558594 C 211.394531 160.210938 211.394531 159.652344 211.050781 159.304688 L 210.515625 158.773438 C 209.867188 158.121094 209.003906 157.765625 208.082031 157.765625 C 207.738281 157.765625 207.40625 157.832031 207.082031 157.929688 Z M 194.03125 150.507812 C 193.496094 149.6875 192.695312 148.570312 191.972656 148.007812 C 191.527344 147.664062 190.417969 147.03125 189.421875 146.484375 C 190.550781 146.675781 192.070312 146.972656 192.96875 147.28125 C 193.964844 147.621094 195.078125 148.246094 195.832031 148.707031 L 194.992188 149.550781 Z M 180.71875 163.101562 L 181.015625 160.984375 C 181.054688 160.710938 180.960938 160.4375 180.769531 160.242188 C 180.574219 160.042969 180.296875 159.945312 180.027344 159.984375 L 177.902344 160.253906 L 178.203125 158.136719 C 178.238281 157.863281 178.148438 157.585938 177.953125 157.390625 C 177.761719 157.195312 177.488281 157.09375 177.210938 157.136719 L 175.089844 157.410156 L 175.386719 155.289062 C 175.425781 155.015625 175.335938 154.742188 175.140625 154.546875 C 174.945312 154.347656 174.671875 154.25 174.398438 154.289062 L 172.273438 154.5625 L 172.570312 152.441406 C 172.609375 152.167969 172.515625 151.890625 172.320312 151.695312 C 172.125 151.5 171.855469 151.398438 171.578125 151.441406 L 169.457031 151.714844 L 169.714844 149.835938 L 173.363281 145.398438 L 190.167969 159.726562 L 184.519531 165.375 C 184.246094 165.242188 183.949219 165.15625 183.648438 165.125 L 183.828125 163.832031 C 183.867188 163.558594 183.777344 163.28125 183.582031 163.085938 C 183.386719 162.886719 183.113281 162.789062 182.839844 162.828125 Z M 186.53125 170.664062 L 174.800781 183.695312 C 174.058594 184.433594 172.773438 184.433594 172.03125 183.695312 L 169.875 181.535156 C 169.109375 180.773438 169.109375 179.53125 169.839844 178.800781 L 182.902344 167.035156 C 183.035156 166.917969 183.207031 166.851562 183.382812 166.851562 C 183.574219 166.851562 183.757812 166.925781 183.890625 167.0625 L 183.988281 167.15625 C 183.988281 167.15625 183.988281 167.160156 183.988281 167.160156 L 186.503906 169.675781 C 186.773438 169.945312 186.785156 170.382812 186.53125 170.664062 Z M 200.972656 168.523438 C 201.136719 168.328125 201.382812 168.214844 201.636719 168.214844 C 201.785156 168.214844 202.003906 168.253906 202.203125 168.425781 L 208.839844 174.082031 C 209.203125 174.398438 209.25 174.949219 208.9375 175.316406 L 200.75 184.914062 C 200.292969 185.449219 199.628906 185.753906 198.925781 185.753906 C 198.359375 185.753906 197.808594 185.550781 197.375 185.179688 C 195.730469 183.78125 194.734375 181.824219 194.566406 179.675781 C 194.394531 177.527344 195.070312 175.4375 196.472656 173.796875 Z M 199.414062 167.621094 L 195.125 172.648438 C 194.703125 173.140625 194.335938 173.667969 194.023438 174.222656 L 191.972656 174.484375 L 192.269531 172.363281 C 192.308594 172.089844 192.21875 171.816406 192.023438 171.621094 C 191.828125 171.421875 191.554688 171.324219 191.28125 171.363281 L 189.160156 171.636719 L 189.457031 169.519531 C 189.496094 169.246094 189.402344 168.96875 189.210938 168.773438 C 189.074219 168.636719 188.898438 168.554688 188.714844 168.527344 L 194.125 163.113281 Z M 187.035156 167.699219 L 186.261719 166.925781 C 186.253906 166.921875 186.246094 166.914062 186.242188 166.90625 L 185.867188 166.53125 L 195.640625 156.761719 L 196.808594 157.929688 Z M 201.691406 158.394531 C 201.179688 158.90625 200.289062 158.902344 199.777344 158.394531 L 195.175781 153.792969 C 194.917969 153.535156 194.777344 153.195312 194.777344 152.832031 C 194.777344 152.46875 194.917969 152.128906 195.175781 151.871094 L 197.1875 149.859375 C 197.441406 149.605469 197.78125 149.464844 198.144531 149.464844 C 198.507812 149.464844 198.847656 149.605469 199.101562 149.863281 L 203.707031 154.464844 C 204.234375 154.992188 204.234375 155.851562 203.707031 156.382812 Z M 204.199219 160.226562 L 203.285156 159.308594 L 204.621094 157.972656 L 205.539062 158.886719 Z M 205.246094 163.855469 C 204.6875 163.203125 204.71875 162.210938 205.335938 161.59375 L 206.90625 160.023438 C 207.222656 159.707031 207.640625 159.535156 208.085938 159.535156 C 208.488281 159.535156 208.867188 159.675781 209.167969 159.933594 Z M 205.246094 163.855469 " fill-opacity="1" fill-rule="nonzero"/><g fill="#5271ff" fill-opacity="1"><g transform="translate(44.983297, 242.749308)"><g><path d="M 23.84375 0 L 23.84375 -2.84375 L 26.140625 -2.84375 C 26.523438 -2.84375 26.878906 -2.878906 27.203125 -2.953125 C 27.535156 -3.035156 27.828125 -3.195312 28.078125 -3.4375 C 28.335938 -3.6875 28.535156 -4.035156 28.671875 -4.484375 C 28.816406 -4.941406 28.890625 -5.550781 28.890625 -6.3125 L 28.890625 -18.28125 L 14.90625 -18.28125 L 14.90625 -6.3125 C 14.90625 -5.550781 14.976562 -4.941406 15.125 -4.484375 C 15.28125 -4.035156 15.476562 -3.6875 15.71875 -3.4375 C 15.96875 -3.195312 16.253906 -3.035156 16.578125 -2.953125 C 16.910156 -2.878906 17.269531 -2.84375 17.65625 -2.84375 L 19.953125 -2.84375 L 19.953125 0 L 1.484375 0 L 1.484375 -2.84375 L 3.734375 -2.84375 C 4.117188 -2.84375 4.472656 -2.878906 4.796875 -2.953125 C 5.128906 -3.035156 5.421875 -3.195312 5.671875 -3.4375 C 5.929688 -3.6875 6.128906 -4.035156 6.265625 -4.484375 C 6.410156 -4.941406 6.484375 -5.550781 6.484375 -6.3125 L 6.484375 -32.0625 C 6.484375 -32.78125 6.40625 -33.351562 6.25 -33.78125 C 6.101562 -34.207031 5.90625 -34.53125 5.65625 -34.75 C 5.40625 -34.976562 5.113281 -35.128906 4.78125 -35.203125 C 4.445312 -35.285156 4.097656 -35.328125 3.734375 -35.328125 L 1.484375 -35.328125 L 1.484375 -38.1875 L 19.953125 -38.1875 L 19.953125 -35.328125 L 17.65625 -35.328125 C 17.269531 -35.328125 16.910156 -35.285156 16.578125 -35.203125 C 16.253906 -35.128906 15.96875 -34.972656 15.71875 -34.734375 C 15.476562 -34.492188 15.28125 -34.144531 15.125 -33.6875 C 14.976562 -33.238281 14.90625 -32.628906 14.90625 -31.859375 L 14.90625 -21.546875 L 28.890625 -21.546875 L 28.890625 -31.859375 C 28.890625 -32.628906 28.816406 -33.238281 28.671875 -33.6875 C 28.535156 -34.144531 28.335938 -34.492188 28.078125 -34.734375 C 27.828125 -34.972656 27.535156 -35.128906 27.203125 -35.203125 C 26.878906 -35.285156 26.523438 -35.328125 26.140625 -35.328125 L 23.84375 -35.328125 L 23.84375 -38.1875 L 42.3125 -38.1875 L 42.3125 -35.328125 L 40.0625 -35.328125 C 39.695312 -35.328125 39.347656 -35.285156 39.015625 -35.203125 C 38.679688 -35.128906 38.390625 -34.972656 38.140625 -34.734375 C 37.890625 -34.492188 37.691406 -34.144531 37.546875 -33.6875 C 37.410156 -33.238281 37.34375 -32.628906 37.34375 -31.859375 L 37.34375 -6.03125 C 37.34375 -5.332031 37.414062 -4.769531 37.5625 -4.34375 C 37.707031 -3.914062 37.90625 -3.59375 38.15625 -3.375 C 38.414062 -3.164062 38.707031 -3.023438 39.03125 -2.953125 C 39.351562 -2.878906 39.695312 -2.84375 40.0625 -2.84375 L 42.3125 -2.84375 L 42.3125 0 Z M 23.84375 0 "/></g></g></g><g fill="#5271ff" fill-opacity="1"><g transform="translate(88.775449, 242.749308)"><g><path d="M 39.140625 -19.140625 C 39.140625 -16.203125 38.742188 -13.519531 37.953125 -11.09375 C 37.160156 -8.675781 35.992188 -6.601562 34.453125 -4.875 C 32.910156 -3.15625 31.019531 -1.828125 28.78125 -0.890625 C 26.550781 0.046875 23.984375 0.515625 21.078125 0.515625 C 18.023438 0.515625 15.363281 0.046875 13.09375 -0.890625 C 10.820312 -1.828125 8.9375 -3.15625 7.4375 -4.875 C 5.945312 -6.601562 4.828125 -8.679688 4.078125 -11.109375 C 3.328125 -13.535156 2.953125 -16.226562 2.953125 -19.1875 C 2.953125 -22.15625 3.328125 -24.84375 4.078125 -27.25 C 4.828125 -29.664062 5.953125 -31.722656 7.453125 -33.421875 C 8.960938 -35.128906 10.851562 -36.445312 13.125 -37.375 C 15.394531 -38.3125 18.0625 -38.78125 21.125 -38.78125 C 24.019531 -38.78125 26.582031 -38.3125 28.8125 -37.375 C 31.050781 -36.445312 32.9375 -35.125 34.46875 -33.40625 C 36 -31.695312 37.160156 -29.632812 37.953125 -27.21875 C 38.742188 -24.8125 39.140625 -22.117188 39.140625 -19.140625 Z M 11.9375 -19.140625 C 11.9375 -16.578125 12.097656 -14.296875 12.421875 -12.296875 C 12.753906 -10.296875 13.285156 -8.601562 14.015625 -7.21875 C 14.753906 -5.832031 15.703125 -4.773438 16.859375 -4.046875 C 18.015625 -3.316406 19.421875 -2.953125 21.078125 -2.953125 C 22.742188 -2.953125 24.15625 -3.316406 25.3125 -4.046875 C 26.476562 -4.773438 27.414062 -5.832031 28.125 -7.21875 C 28.84375 -8.601562 29.359375 -10.296875 29.671875 -12.296875 C 29.992188 -14.296875 30.15625 -16.578125 30.15625 -19.140625 C 30.15625 -21.703125 29.992188 -23.984375 29.671875 -25.984375 C 29.359375 -27.984375 28.84375 -29.675781 28.125 -31.0625 C 27.414062 -32.445312 26.484375 -33.5 25.328125 -34.21875 C 24.179688 -34.945312 22.78125 -35.3125 21.125 -35.3125 C 19.457031 -35.3125 18.039062 -34.945312 16.875 -34.21875 C 15.707031 -33.5 14.753906 -32.445312 14.015625 -31.0625 C 13.285156 -29.675781 12.753906 -27.984375 12.421875 -25.984375 C 12.097656 -23.984375 11.9375 -21.703125 11.9375 -19.140625 Z M 11.9375 -19.140625 "/></g></g></g><g fill="#5271ff" fill-opacity="1"><g transform="translate(130.87023, 242.749308)"><g><path d="M 32.3125 0 L 32.3125 -2.84375 L 32.828125 -2.84375 C 33.378906 -2.84375 33.867188 -2.878906 34.296875 -2.953125 C 34.722656 -3.023438 35.078125 -3.164062 35.359375 -3.375 C 35.640625 -3.582031 35.847656 -3.878906 35.984375 -4.265625 C 36.128906 -4.660156 36.203125 -5.179688 36.203125 -5.828125 L 36.203125 -32.90625 L 25.40625 0 L 21.78125 0 L 10.46875 -32.90625 L 10.46875 -6.3125 C 10.46875 -5.550781 10.554688 -4.941406 10.734375 -4.484375 C 10.921875 -4.035156 11.1875 -3.6875 11.53125 -3.4375 C 11.875 -3.195312 12.285156 -3.035156 12.765625 -2.953125 C 13.253906 -2.878906 13.8125 -2.84375 14.4375 -2.84375 L 14.75 -2.84375 L 14.75 0 L 1.484375 0 L 1.484375 -2.84375 L 3.734375 -2.84375 C 4.117188 -2.84375 4.472656 -2.878906 4.796875 -2.953125 C 5.128906 -3.023438 5.421875 -3.164062 5.671875 -3.375 C 5.929688 -3.59375 6.128906 -3.914062 6.265625 -4.34375 C 6.410156 -4.769531 6.484375 -5.332031 6.484375 -6.03125 L 6.484375 -32.09375 C 6.484375 -32.8125 6.410156 -33.382812 6.265625 -33.8125 C 6.128906 -34.238281 5.929688 -34.5625 5.671875 -34.78125 C 5.421875 -35.007812 5.128906 -35.160156 4.796875 -35.234375 C 4.472656 -35.316406 4.117188 -35.359375 3.734375 -35.359375 L 1.484375 -35.359375 L 1.484375 -38.1875 L 16.890625 -38.1875 L 25.78125 -12.359375 L 34.296875 -38.1875 L 49.40625 -38.1875 L 49.40625 -35.359375 L 47.171875 -35.359375 C 46.785156 -35.359375 46.425781 -35.316406 46.09375 -35.234375 C 45.757812 -35.160156 45.46875 -35 45.21875 -34.75 C 44.976562 -34.507812 44.789062 -34.160156 44.65625 -33.703125 C 44.519531 -33.253906 44.453125 -32.648438 44.453125 -31.890625 L 44.453125 -6.3125 C 44.453125 -5.550781 44.519531 -4.941406 44.65625 -4.484375 C 44.789062 -4.035156 44.976562 -3.6875 45.21875 -3.4375 C 45.46875 -3.195312 45.757812 -3.035156 46.09375 -2.953125 C 46.425781 -2.878906 46.785156 -2.84375 47.171875 -2.84375 L 49.40625 -2.84375 L 49.40625 0 Z M 32.3125 0 "/></g></g></g><g fill="#5271ff" fill-opacity="1"><g transform="translate(181.791336, 242.749308)"><g><path d="M 14.96875 -3.265625 L 25.671875 -3.265625 C 26.210938 -3.265625 26.671875 -3.363281 27.046875 -3.5625 C 27.429688 -3.757812 27.765625 -4.039062 28.046875 -4.40625 C 28.328125 -4.78125 28.550781 -5.210938 28.71875 -5.703125 C 28.882812 -6.203125 29.007812 -6.75 29.09375 -7.34375 L 29.515625 -9.84375 L 33.21875 -9.84375 L 32.828125 0 L 1.484375 0 L 1.484375 -2.84375 L 3.734375 -2.84375 C 4.117188 -2.84375 4.472656 -2.878906 4.796875 -2.953125 C 5.128906 -3.023438 5.421875 -3.164062 5.671875 -3.375 C 5.929688 -3.59375 6.128906 -3.914062 6.265625 -4.34375 C 6.410156 -4.769531 6.484375 -5.332031 6.484375 -6.03125 L 6.484375 -31.890625 C 6.484375 -32.648438 6.410156 -33.253906 6.265625 -33.703125 C 6.128906 -34.160156 5.9375 -34.507812 5.6875 -34.75 C 5.445312 -35 5.160156 -35.160156 4.828125 -35.234375 C 4.492188 -35.316406 4.128906 -35.359375 3.734375 -35.359375 L 1.484375 -35.359375 L 1.484375 -38.1875 L 31.1875 -38.1875 L 31.390625 -28.328125 L 27.65625 -28.328125 L 27.390625 -30.875 C 27.253906 -32.175781 26.925781 -33.175781 26.40625 -33.875 C 25.882812 -34.570312 25.070312 -34.921875 23.96875 -34.921875 L 14.96875 -34.921875 L 14.96875 -21.546875 L 27.65625 -21.546875 L 27.65625 -18.328125 L 14.96875 -18.328125 Z M 14.96875 -3.265625 "/></g></g></g><g fill="#5271ff" fill-opacity="1"><g transform="translate(216.704935, 242.749308)"><g><path d="M 38.078125 -19.796875 C 38.078125 -16.867188 37.675781 -14.191406 36.875 -11.765625 C 36.070312 -9.335938 34.875 -7.253906 33.28125 -5.515625 C 31.6875 -3.773438 29.707031 -2.421875 27.34375 -1.453125 C 24.988281 -0.484375 22.253906 0 19.140625 0 L 1.484375 0 L 1.484375 -2.84375 L 3.734375 -2.84375 C 4.128906 -2.84375 4.492188 -2.878906 4.828125 -2.953125 C 5.160156 -3.035156 5.445312 -3.195312 5.6875 -3.4375 C 5.9375 -3.6875 6.128906 -4.035156 6.265625 -4.484375 C 6.410156 -4.941406 6.484375 -5.550781 6.484375 -6.3125 L 6.484375 -32.09375 C 6.484375 -32.8125 6.410156 -33.382812 6.265625 -33.8125 C 6.128906 -34.238281 5.929688 -34.5625 5.671875 -34.78125 C 5.421875 -35.007812 5.128906 -35.160156 4.796875 -35.234375 C 4.472656 -35.316406 4.117188 -35.359375 3.734375 -35.359375 L 1.484375 -35.359375 L 1.484375 -38.1875 L 19.140625 -38.1875 C 22.097656 -38.1875 24.75 -37.796875 27.09375 -37.015625 C 29.4375 -36.242188 31.421875 -35.085938 33.046875 -33.546875 C 34.671875 -32.003906 35.914062 -30.082031 36.78125 -27.78125 C 37.644531 -25.488281 38.078125 -22.828125 38.078125 -19.796875 Z M 29.046875 -19.796875 C 29.046875 -24.898438 28.109375 -28.695312 26.234375 -31.1875 C 24.359375 -33.675781 21.601562 -34.921875 17.96875 -34.921875 L 14.90625 -34.921875 L 14.90625 -3.3125 L 17.921875 -3.3125 C 19.742188 -3.3125 21.347656 -3.691406 22.734375 -4.453125 C 24.128906 -5.210938 25.289062 -6.304688 26.21875 -7.734375 C 27.15625 -9.160156 27.859375 -10.882812 28.328125 -12.90625 C 28.804688 -14.9375 29.046875 -17.234375 29.046875 -19.796875 Z M 29.046875 -19.796875 "/></g></g></g><g fill="#5271ff" fill-opacity="1"><g transform="translate(257.729067, 242.749308)"><g><path d="M 14.96875 -3.265625 L 25.671875 -3.265625 C 26.210938 -3.265625 26.671875 -3.363281 27.046875 -3.5625 C 27.429688 -3.757812 27.765625 -4.039062 28.046875 -4.40625 C 28.328125 -4.78125 28.550781 -5.210938 28.71875 -5.703125 C 28.882812 -6.203125 29.007812 -6.75 29.09375 -7.34375 L 29.515625 -9.84375 L 33.21875 -9.84375 L 32.828125 0 L 1.484375 0 L 1.484375 -2.84375 L 3.734375 -2.84375 C 4.117188 -2.84375 4.472656 -2.878906 4.796875 -2.953125 C 5.128906 -3.023438 5.421875 -3.164062 5.671875 -3.375 C 5.929688 -3.59375 6.128906 -3.914062 6.265625 -4.34375 C 6.410156 -4.769531 6.484375 -5.332031 6.484375 -6.03125 L 6.484375 -31.890625 C 6.484375 -32.648438 6.410156 -33.253906 6.265625 -33.703125 C 6.128906 -34.160156 5.9375 -34.507812 5.6875 -34.75 C 5.445312 -35 5.160156 -35.160156 4.828125 -35.234375 C 4.492188 -35.316406 4.128906 -35.359375 3.734375 -35.359375 L 1.484375 -35.359375 L 1.484375 -38.1875 L 31.1875 -38.1875 L 31.390625 -28.328125 L 27.65625 -28.328125 L 27.390625 -30.875 C 27.253906 -32.175781 26.925781 -33.175781 26.40625 -33.875 C 25.882812 -34.570312 25.070312 -34.921875 23.96875 -34.921875 L 14.96875 -34.921875 L 14.96875 -21.546875 L 27.65625 -21.546875 L 27.65625 -18.328125 L 14.96875 -18.328125 Z M 14.96875 -3.265625 "/></g></g></g><g fill="#5271ff" fill-opacity="1"><g transform="translate(292.642666, 242.749308)"><g><path d="M 37.34375 -35.359375 L 34.765625 -35.359375 C 34.515625 -35.359375 34.289062 -35.304688 34.09375 -35.203125 C 33.90625 -35.097656 33.71875 -34.898438 33.53125 -34.609375 C 33.34375 -34.328125 33.144531 -33.929688 32.9375 -33.421875 C 32.726562 -32.921875 32.484375 -32.257812 32.203125 -31.4375 L 21.28125 0 L 15.9375 0 L 4.546875 -32.78125 C 4.367188 -33.28125 4.144531 -33.695312 3.875 -34.03125 C 3.601562 -34.375 3.316406 -34.640625 3.015625 -34.828125 C 2.710938 -35.023438 2.40625 -35.160156 2.09375 -35.234375 C 1.78125 -35.316406 1.492188 -35.359375 1.234375 -35.359375 L 0 -35.359375 L 0 -38.1875 L 17.65625 -38.1875 L 17.65625 -35.359375 L 15.203125 -35.359375 C 14.941406 -35.359375 14.6875 -35.328125 14.4375 -35.265625 C 14.195312 -35.203125 13.972656 -35.101562 13.765625 -34.96875 C 13.566406 -34.832031 13.40625 -34.648438 13.28125 -34.421875 C 13.164062 -34.191406 13.109375 -33.910156 13.109375 -33.578125 C 13.109375 -33.234375 13.160156 -32.835938 13.265625 -32.390625 C 13.367188 -31.953125 13.472656 -31.582031 13.578125 -31.28125 L 19.03125 -14.8125 C 19.175781 -14.40625 19.320312 -13.929688 19.46875 -13.390625 C 19.613281 -12.859375 19.753906 -12.296875 19.890625 -11.703125 C 20.035156 -11.109375 20.164062 -10.519531 20.28125 -9.9375 C 20.394531 -9.351562 20.476562 -8.816406 20.53125 -8.328125 C 20.582031 -8.628906 20.671875 -9.035156 20.796875 -9.546875 C 20.929688 -10.054688 21.082031 -10.613281 21.25 -11.21875 C 21.425781 -11.820312 21.601562 -12.421875 21.78125 -13.015625 C 21.96875 -13.617188 22.140625 -14.164062 22.296875 -14.65625 L 27.8125 -30.921875 C 27.882812 -31.109375 27.957031 -31.316406 28.03125 -31.546875 C 28.113281 -31.785156 28.179688 -32.023438 28.234375 -32.265625 C 28.296875 -32.515625 28.347656 -32.753906 28.390625 -32.984375 C 28.441406 -33.210938 28.46875 -33.394531 28.46875 -33.53125 C 28.46875 -34.125 28.269531 -34.578125 27.875 -34.890625 C 27.488281 -35.203125 26.972656 -35.359375 26.328125 -35.359375 L 23.53125 -35.359375 L 23.53125 -38.1875 L 37.34375 -38.1875 Z M 37.34375 -35.359375 "/></g></g></g></svg>